<?xml version="1.0" standalone="no"?><!DOCTYPE svg PUBLIC "-//W3C//DTD SVG 1.1//EN" "http://www.w3.org/Graphics/SVG/1.1/DTD/svg11.dtd"><svg t="1616116151175" class="icon" viewBox="0 0 1024 1024" version="1.1" xmlns="http://www.w3.org/2000/svg" p-id="1255" xmlns:xlink="http://www.w3.org/1999/xlink" width="200" height="200"><defs><style type="text/css"></style></defs><path d="M804.770909 179.665455l-218.996364-94.487273a186.181818 186.181818 0 0 0-147.54909 0L219.229091 179.665455A93.090909 93.090909 0 0 0 162.909091 265.076364V640a94.487273 94.487273 0 0 0 4.189091 27.927273c16.058182 49.570909 84.014545 186.181818 308.596363 279.272727a95.650909 95.650909 0 0 0 72.61091 0c224.581818-93.090909 292.538182-229.469091 308.596363-279.272727a94.487273 94.487273 0 0 0 4.189091-27.927273V265.076364a93.090909 93.090909 0 0 0-56.32-85.410909zM605.090909 542.021818a23.272727 23.272727 0 0 1 0 46.545455h-93.090909v46.545454h93.090909a23.272727 23.272727 0 0 1 0 46.545455h-93.090909v46.545454a23.272727 23.272727 0 0 1-46.545455 0V485.701818a116.363636 116.363636 0 1 1 46.545455 9.774546v46.545454z" fill="#0061b2" p-id="1256"></path><path d="M573.672727 367.010909A62.836364 62.836364 0 1 0 499.665455 442.181818a63.301818 63.301818 0 0 0 74.007272-75.170909z" fill="#0061b2" p-id="1257"></path></svg>